<svg width="17" height="16" viewBox="0 0 17 16" fill="none" xmlns="http://www.w3.org/2000/svg">
<path d="M16.9433 5.8964C16.8056 5.47516 16.4416 5.16727 16.0018 5.10301L11.8228 4.49515L9.95259 0.708118C9.56061 -0.0899213 8.25274 -0.0899213 7.86076 0.708118L5.99056 4.49515L1.81141 5.10315C1.37158 5.16727 1.00763 5.47421 0.868725 5.89654C0.732278 6.31887 0.845345 6.78317 1.1639 7.09244L4.18912 10.0407L3.47517 14.2034C3.40052 14.6409 3.58017 15.0831 3.93838 15.3445C4.30124 15.6082 4.77483 15.6408 5.16804 15.4331L8.90613 13.4672L12.6442 15.4331C12.8146 15.5229 13.0024 15.5672 13.1879 15.5672C13.4294 15.5672 13.671 15.4926 13.874 15.3444C14.2333 15.0831 14.413 14.6408 14.3372 14.2033L13.6233 10.0405L16.6485 7.0923C16.9654 6.78194 17.0798 6.31873 16.9433 5.8964ZM11.5556 8.79912C11.2815 9.06627 11.1555 9.4536 11.2208 9.83164L11.6385 12.2688L9.44987 11.1185C9.27951 11.0286 9.09289 10.9843 8.90613 10.9843C8.7195 10.9843 8.53397 11.0286 8.36239 11.1185L6.17363 12.2688L6.59131 9.83164C6.65666 9.4536 6.5306 9.0675 6.25648 8.79912L4.48431 7.07247L6.93202 6.71659C7.31237 6.66177 7.64023 6.42264 7.81058 6.07838L8.90489 3.86172L9.99921 6.07838C10.1696 6.4225 10.4974 6.66177 10.8778 6.71659L13.3255 7.07247L11.5556 8.79912Z" fill="#2196F3"/>
</svg>
